{"asset":{"version":"2.0","generator":"Cortex Lab fsaverage5 converter"},"scene":0,"scenes":[{"nodes":[0]}],"nodes":[{"mesh":0}],"meshes":[{"primitives":[{"attributes":{"POSITION":0,"NORMAL":1,"COLOR_0":2},"indices":3,"mode":4}]}],"buffers":[{"uri":"data:application/octet-stream;base64,","byteLength":614472}],"bufferViews":[{"buffer":0,"byteOffset":0,"byteLength":122904,"target":34962},{"buffer":0,"byteOffset":122904,"byteLength":122904,"target":34962},{"buffer":0,"byteOffset":245808,"byteLength":122904,"target":34962},{"buffer":0,"byteOffset":368712,"byteLength":245760,"target":34963}],"accessors":[{"bufferView":0,"componentType":5126,"count":10242,"type":"VEC3","min":[-41.503299713134766,-107.99285888671875,-72.9389419555664],"max":[41.4910888671875,107.98321533203125,72.95326232910156]},{"bufferView":1,"componentType":5126,"count":10242,"type":"VEC3"},{"bufferView":2,"componentType":5126,"count":10242,"type":"VEC3"},{"bufferView":3,"componentType":5125,"count":61440,"type":"SCALAR","min":[0],"max":[10241]}]}
