{"asset":{"version":"2.0","generator":"Cortex Lab fsaverage5 converter"},"scene":0,"scenes":[{"nodes":[0]}],"nodes":[{"mesh":0}],"meshes":[{"primitives":[{"attributes":{"POSITION":0,"NORMAL":1,"COLOR_0":2},"indices":3,"mode":4}]}],"buffers":[{"uri":"data:application/octet-stream;base64,","byteLength":614472}],"bufferViews":[{"buffer":0,"byteOffset":0,"byteLength":122904,"target":34962},{"buffer":0,"byteOffset":122904,"byteLength":122904,"target":34962},{"buffer":0,"byteOffset":245808,"byteLength":122904,"target":34962},{"buffer":0,"byteOffset":368712,"byteLength":245760,"target":34963}],"accessors":[{"bufferView":0,"componentType":5126,"count":10242,"type":"VEC3","min":[-40.89653778076172,-107.67476654052734,-73.29000091552734],"max":[40.88197708129883,107.65121459960938,73.31265258789062]},{"bufferView":1,"componentType":5126,"count":10242,"type":"VEC3"},{"bufferView":2,"componentType":5126,"count":10242,"type":"VEC3"},{"bufferView":3,"componentType":5125,"count":61440,"type":"SCALAR","min":[0],"max":[10241]}]}
